<svg width="24" height="26" viewBox="0 0 24 26" fill="none" xmlns="http://www.w3.org/2000/svg">
<path d="M3.32812 3.96484C3.28125 3.96484 3.23828 3.97266 3.19922 3.98828C3.16016 4.00391 3.125 4.02734 3.09375 4.05859C3.0625 4.08984 3.03906 4.125 3.02344 4.16406C3.00781 4.20312 3 4.24609 3 4.29297V17.6289C3 17.6758 3.00781 17.7188 3.02344 17.7578C3.03906 17.7969 3.0625 17.832 3.09375 17.8633C3.125 17.8945 3.16016 17.918 3.19922 17.9336C3.23828 17.9492 3.28125 17.957 3.32812 17.957H6C6.28125 17.957 6.51953 18.0547 6.71484 18.25C6.91016 18.4453 7.00781 18.6836 7.00781 18.9648V20.957L10.7344 18.168C10.8125 18.1055 10.9062 18.0547 11.0156 18.0156C11.125 17.9766 11.2344 17.957 11.3438 17.957H20.6719C20.7188 17.957 20.7617 17.9492 20.8008 17.9336C20.8398 17.918 20.875 17.8945 20.9062 17.8633C20.9375 17.832 20.9609 17.7969 20.9766 17.7578C20.9922 17.7188 21 17.6758 21 17.6289V4.29297C21 4.24609 20.9922 4.20312 20.9766 4.16406C20.9609 4.125 20.9375 4.08984 20.9062 4.05859C20.875 4.02734 20.8398 4.00391 20.8008 3.98828C20.7617 3.97266 20.7188 3.96484 20.6719 3.96484H3.32812ZM1.6875 2.65234C1.90625 2.43359 2.15625 2.26562 2.4375 2.14844C2.71875 2.03125 3.01562 1.97266 3.32812 1.97266H20.6719C20.9844 1.97266 21.2812 2.03125 21.5625 2.14844C21.8438 2.26562 22.0938 2.43359 22.3125 2.65234C22.5312 2.87109 22.6992 3.12109 22.8164 3.40234C22.9336 3.68359 22.9922 3.98047 22.9922 4.29297V17.6289C22.9922 17.9414 22.9336 18.2422 22.8164 18.5312C22.6992 18.8203 22.5312 19.0742 22.3125 19.293C22.0938 19.5117 21.8438 19.6797 21.5625 19.7969C21.2812 19.9141 20.9844 19.9727 20.6719 19.9727H11.6719L6.60938 23.7695C6.45312 23.8789 6.28125 23.9414 6.09375 23.957C5.90625 23.9727 5.72656 23.9414 5.55469 23.8633C5.38281 23.7695 5.24609 23.6445 5.14453 23.4883C5.04297 23.332 4.99219 23.1602 4.99219 22.9727V19.9727H3.32812C3.01562 19.9727 2.71875 19.9141 2.4375 19.7969C2.15625 19.6797 1.90625 19.5117 1.6875 19.293C1.46875 19.0742 1.30078 18.8203 1.18359 18.5312C1.06641 18.2422 1.00781 17.9414 1.00781 17.6289V4.29297C1.00781 3.98047 1.06641 3.68359 1.18359 3.40234C1.30078 3.12109 1.46875 2.87109 1.6875 2.65234Z" fill="#FBBF24"/>
</svg>
