<svg width="20" height="21" viewBox="0 0 20 21" fill="none" xmlns="http://www.w3.org/2000/svg">
<path d="M11.76 19.3809V11.2809H14.84L15.3 8.12086H11.76V6.10086C11.76 5.59419 11.8733 5.22086 12.1 4.98086C12.3667 4.70086 12.8467 4.56086 13.54 4.56086H15.42V1.74086C15.2067 1.71419 14.8733 1.68753 14.42 1.66086C13.8333 1.63419 13.2467 1.62086 12.66 1.62086C11.7533 1.62086 10.9533 1.78086 10.26 2.10086C9.56667 2.42086 9.03 2.89419 8.65 3.52086C8.27 4.14753 8.08 4.90086 8.08 5.78086V8.12086H5V11.2809H8.08V19.3809H11.76Z" fill="#171717"/>
</svg>
