<svg width="15" height="20" viewBox="0 0 15 20" fill="none" xmlns="http://www.w3.org/2000/svg">
<path d="M7.5 0C3.35953 0 0 2.87991 0 6.42857C0 12.1429 7.5 20 7.5 20C7.5 20 15 12.1429 15 6.42857C15 2.87991 11.6405 0 7.5 0ZM7.5 10C6.90666 10 6.32664 9.83243 5.83329 9.51849C5.33994 9.20454 4.95542 8.75831 4.72836 8.23624C4.5013 7.71416 4.44189 7.13969 4.55764 6.58546C4.6734 6.03123 4.95912 5.52213 5.37868 5.12255C5.79824 4.72297 6.33279 4.45086 6.91473 4.34061C7.49667 4.23037 8.09987 4.28695 8.64805 4.5032C9.19623 4.71945 9.66476 5.08566 9.99441 5.55551C10.3241 6.02537 10.5 6.57777 10.5 7.14286C10.4991 7.90036 10.1828 8.62661 9.62036 9.16225C9.05794 9.69789 8.29538 9.99917 7.5 10Z" fill="#FAFAFA"/>
</svg>
