<svg width="26" height="20" viewBox="0 0 26 20" fill="none" xmlns="http://www.w3.org/2000/svg">
<path d="M24.8334 0H0.852642C0.626531 0.000266496 0.409761 0.090734 0.249908 0.251547C0.0900542 0.412361 0.000176563 0.630382 0 0.857762V2.58335C0 2.66285 0.0857312 2.75409 0.155784 2.791L12.7606 10.0311C12.7929 10.0497 12.8295 10.0593 12.8667 10.059C12.9047 10.0591 12.942 10.0489 12.9748 10.0295L25.1986 2.79804C25.2674 2.75946 25.4495 2.65748 25.5179 2.61052C25.6006 2.55383 25.686 2.5025 25.686 2.40086V0.857426C25.6857 0.630105 25.5958 0.41217 25.436 0.251429C25.2761 0.0906881 25.0594 0.000266341 24.8334 0Z" fill="#FAFAFA"/>
<path d="M25.582 5.18462C25.5492 5.1658 25.512 5.15602 25.4742 5.15625C25.4364 5.15649 25.3994 5.16674 25.3668 5.18597L18.4493 9.27887C18.4217 9.29502 18.3981 9.3172 18.3802 9.34378C18.3624 9.37035 18.3507 9.40063 18.346 9.43237C18.3414 9.46411 18.3439 9.4965 18.3534 9.52713C18.3629 9.55775 18.3791 9.58583 18.4009 9.60929L25.3194 17.1091C25.3393 17.1307 25.3633 17.148 25.3902 17.1598C25.417 17.1716 25.446 17.1776 25.4752 17.1775C25.5317 17.1774 25.5859 17.1548 25.6258 17.1146C25.6658 17.0745 25.6883 17.02 25.6884 16.9632V5.3708C25.6885 5.33309 25.6788 5.29601 25.6601 5.26332C25.6414 5.23063 25.6144 5.20348 25.582 5.18462Z" fill="#FAFAFA"/>
<path d="M16.4518 10.653C16.4189 10.6171 16.3748 10.5935 16.3268 10.5863C16.2788 10.5791 16.2298 10.5887 16.1879 10.6135L13.4152 12.2542C13.2527 12.3486 13.0686 12.3988 12.881 12.4001C12.6934 12.4013 12.5087 12.3535 12.345 12.2612L9.90484 10.8593C9.86545 10.8368 9.81994 10.8274 9.7749 10.8326C9.72985 10.8378 9.68762 10.8573 9.65432 10.8882L0.38801 19.5316C0.363717 19.5544 0.345066 19.5826 0.333542 19.614C0.322018 19.6454 0.31794 19.679 0.321634 19.7122C0.325327 19.7455 0.33669 19.7774 0.354817 19.8054C0.372943 19.8334 0.397331 19.8568 0.426038 19.8737C0.570147 19.9589 0.709252 19.9995 0.850692 19.9995H24.5862C24.6278 19.9996 24.6684 19.9874 24.7031 19.9644C24.7378 19.9415 24.765 19.9088 24.7814 19.8704C24.798 19.8322 24.8032 19.7899 24.7962 19.7489C24.7892 19.7078 24.7703 19.6697 24.742 19.6392L16.4518 10.653Z" fill="#FAFAFA"/>
<path d="M7.61707 9.86569C7.64162 9.84287 7.66048 9.81457 7.67214 9.78306C7.6838 9.75156 7.68793 9.71775 7.6842 9.68434C7.68046 9.65094 7.66897 9.61889 7.65064 9.59078C7.63232 9.56267 7.60768 9.53928 7.57871 9.52251L0.31791 5.35212C0.285506 5.33362 0.24884 5.324 0.211578 5.32422C0.174317 5.32444 0.137766 5.3345 0.105581 5.35338C0.0733955 5.37226 0.0467045 5.39931 0.0281768 5.43182C0.00964905 5.46433 -6.58806e-05 5.50117 3.40147e-06 5.53864V16.4812C-0.000231699 16.523 0.0117251 16.564 0.0343937 16.599C0.0570623 16.634 0.0894476 16.6616 0.127541 16.6783C0.165635 16.695 0.207764 16.7001 0.248715 16.693C0.289667 16.6859 0.327641 16.6668 0.35794 16.6382L7.61707 9.86569Z" fill="#FAFAFA"/>
</svg>
