<svg width="20" height="21" viewBox="0 0 20 21" fill="none" xmlns="http://www.w3.org/2000/svg">
<g clip-path="url(#clip0_4091_19610)">
<path d="M7.3985 1.57922C8.4385 1.55255 9.42184 1.72922 10.3485 2.10922C11.2752 2.48922 12.0985 3.05255 12.8185 3.79922C13.4852 4.58589 13.9885 5.45922 14.3285 6.41922C14.6685 7.37922 14.8185 8.36589 14.7785 9.37922C14.7785 10.7259 14.4718 12.0126 13.8585 13.2392C13.2985 14.3326 12.6052 15.2926 11.7785 16.1192C10.6585 17.2792 9.39184 18.2526 7.9785 19.0392C7.79184 19.1459 7.59517 19.1992 7.3885 19.1992C7.18184 19.1992 6.98517 19.1459 6.7985 19.0392C5.38517 18.2392 4.12517 17.2659 3.0185 16.1192C2.19184 15.2926 1.4985 14.3326 0.938503 13.2392C0.338503 12.0659 0.02517 10.7792 -0.00149671 9.37922C-0.0414967 8.36589 0.108503 7.37922 0.448503 6.41922C0.788503 5.45922 1.29184 4.58589 1.9585 3.79922C2.6785 3.05255 3.5085 2.48922 4.4485 2.10922C5.3885 1.72922 6.37184 1.55255 7.3985 1.57922ZM7.3985 17.5392C8.1185 17.1259 8.81184 16.6392 9.4785 16.0792C10.5318 15.2126 11.3652 14.2926 11.9785 13.3192C12.7785 12.0392 13.1785 10.7259 13.1785 9.37922C13.2185 8.56589 13.1052 7.76922 12.8385 6.98922C12.5718 6.20922 12.1718 5.50589 11.6385 4.87922C11.0918 4.31922 10.4452 3.88589 9.6985 3.57922C8.99184 3.28589 8.22517 3.15255 7.3985 3.17922C6.5585 3.15255 5.79184 3.28589 5.0985 3.57922C4.36517 3.87255 3.71184 4.30589 3.1385 4.87922C2.60517 5.50589 2.2085 6.20589 1.9485 6.97922C1.6885 7.75255 1.57184 8.55255 1.5985 9.37922C1.5985 10.7259 2.00517 12.0392 2.8185 13.3192C3.43184 14.2926 4.2585 15.2126 5.2985 16.0792C5.9785 16.6392 6.6785 17.1259 7.3985 17.5392ZM7.3985 4.87922C7.86517 4.87922 8.32184 4.95922 8.7685 5.11922C9.21517 5.27922 9.62517 5.51255 9.9985 5.81922C10.7452 6.43255 11.2185 7.21922 11.4185 8.17922C11.5118 8.64589 11.5218 9.11255 11.4485 9.57922C11.3752 10.0459 11.2252 10.4892 10.9985 10.9092C10.7718 11.3292 10.4852 11.6992 10.1385 12.0192C9.79184 12.3392 9.3985 12.5859 8.9585 12.7592C8.5185 12.9326 8.06517 13.0326 7.5985 13.0592C7.13184 13.0859 6.67184 13.0326 6.2185 12.8992C5.76517 12.7659 5.3485 12.5559 4.9685 12.2692C4.5885 11.9826 4.26517 11.6426 3.9985 11.2492C3.73184 10.8559 3.54184 10.4326 3.4285 9.97922C3.31517 9.52589 3.28184 9.06255 3.3285 8.58922C3.37517 8.11589 3.4985 7.66589 3.6985 7.23922C3.8985 6.81255 4.16517 6.42589 4.4985 6.07922C4.87184 5.70589 5.30517 5.41255 5.7985 5.19922C6.29184 4.98589 6.82517 4.87922 7.3985 4.87922ZM7.3985 11.4592C8.02517 11.4592 8.55184 11.2726 8.9785 10.8992C9.4585 10.5126 9.75184 10.0326 9.8585 9.45922C9.96517 8.88589 9.87517 8.33589 9.5885 7.80922C9.30184 7.28255 8.89184 6.90589 8.3585 6.67922C7.7985 6.45255 7.2385 6.41922 6.6785 6.57922C6.09184 6.76589 5.63517 7.10255 5.3085 7.58922C4.98184 8.07589 4.85184 8.62255 4.9185 9.22922C4.98517 9.83589 5.22517 10.3392 5.6385 10.7392C5.85184 10.9659 6.11517 11.1426 6.4285 11.2692C6.74184 11.3959 7.06517 11.4592 7.3985 11.4592Z" fill="#FBBF24"/>
</g>
<defs>
<clipPath id="clip0_4091_19610">
<rect width="19.2" height="20" fill="white" transform="matrix(1 0 0 -1 0 20.5)"/>
</clipPath>
</defs>
</svg>
