<svg width="24" height="25" viewBox="0 0 24 25" fill="none" xmlns="http://www.w3.org/2000/svg">
<path d="M1.99219 6.73438C2.24219 6.73438 2.45703 6.82422 2.63672 7.00391C2.81641 7.18359 2.90625 7.39844 2.90625 7.64844V17.6328C2.90625 17.8516 2.94531 18.0586 3.02344 18.2539C3.10156 18.4492 3.21875 18.625 3.375 18.7812C3.51562 18.9219 3.68359 19.0352 3.87891 19.1211C4.07422 19.207 4.28125 19.25 4.5 19.25H19.5C19.7188 19.25 19.9258 19.207 20.1211 19.1211C20.3164 19.0352 20.4844 18.9219 20.625 18.7812C20.7812 18.625 20.8984 18.4492 20.9766 18.2539C21.0547 18.0586 21.0938 17.8516 21.0938 17.6328V7.64844C21.0938 7.39844 21.1836 7.18359 21.3633 7.00391C21.543 6.82422 21.7578 6.73438 22.0078 6.73438C22.2578 6.73438 22.4688 6.82422 22.6406 7.00391C22.8125 7.18359 22.8984 7.39844 22.8984 7.64844V17.6328C22.8984 18.0859 22.8125 18.5195 22.6406 18.9336C22.4688 19.3477 22.2266 19.7188 21.9141 20.0469C21.5859 20.3594 21.2148 20.6016 20.8008 20.7734C20.3867 20.9453 19.9531 21.0312 19.5 21.0312H4.5C4.04688 21.0312 3.61328 20.9453 3.19922 20.7734C2.78516 20.6016 2.41406 20.3594 2.08594 20.0469C1.77344 19.7188 1.53125 19.3477 1.35938 18.9336C1.1875 18.5195 1.10156 18.0859 1.10156 17.6328V7.64844C1.10156 7.39844 1.1875 7.18359 1.35938 7.00391C1.53125 6.82422 1.74219 6.73438 1.99219 6.73438ZM2.08594 5.23438C2.41406 4.92188 2.78516 4.67969 3.19922 4.50781C3.61328 4.33594 4.04688 4.25 4.5 4.25H19.5C19.9531 4.25 20.3867 4.33594 20.8008 4.50781C21.2148 4.67969 21.5859 4.92188 21.9141 5.23438C22.2266 5.54688 22.4688 5.91406 22.6406 6.33594C22.8125 6.75781 22.8984 7.19531 22.8984 7.64844C22.8984 7.80469 22.8594 7.94922 22.7812 8.08203C22.7031 8.21484 22.6016 8.32031 22.4766 8.39844L13.8047 13.8125C13.5391 13.9844 13.25 14.1133 12.9375 14.1992C12.625 14.2852 12.3125 14.3281 12 14.3281C11.6875 14.3281 11.375 14.2852 11.0625 14.1992C10.75 14.1133 10.4609 13.9844 10.1953 13.8125L1.52344 8.39844C1.39844 8.32031 1.29688 8.21484 1.21875 8.08203C1.14062 7.94922 1.10156 7.80469 1.10156 7.64844C1.10156 7.19531 1.1875 6.75781 1.35938 6.33594C1.53125 5.91406 1.77344 5.54688 2.08594 5.23438ZM4.5 6.03125C4.28125 6.03125 4.07422 6.07422 3.87891 6.16016C3.68359 6.24609 3.51562 6.35938 3.375 6.5C3.28125 6.59375 3.19922 6.69922 3.12891 6.81641C3.05859 6.93359 3.00781 7.05469 2.97656 7.17969L11.1562 12.2891C11.2812 12.3672 11.4141 12.4297 11.5547 12.4766C11.6953 12.5234 11.8438 12.5469 12 12.5469C12.1562 12.5469 12.3047 12.5234 12.4453 12.4766C12.5859 12.4297 12.7188 12.3672 12.8438 12.2891L21.0234 7.17969C20.9922 7.05469 20.9414 6.93359 20.8711 6.81641C20.8008 6.69922 20.7188 6.59375 20.625 6.5C20.4844 6.35938 20.3164 6.24609 20.1211 6.16016C19.9258 6.07422 19.7188 6.03125 19.5 6.03125H4.5Z" fill="#FBBF24"/>
</svg>
