<svg width="20" height="21" viewBox="0 0 20 21" fill="none" xmlns="http://www.w3.org/2000/svg">
<path d="M6.36125 1.2807C5.34792 1.2807 4.40792 1.53403 3.54125 2.0407C2.70125 2.53403 2.03458 3.2007 1.54125 4.0407C1.03458 4.90737 0.78125 5.84737 0.78125 6.8607V14.1407C0.78125 15.154 1.03458 16.094 1.54125 16.9607C2.03458 17.8007 2.70125 18.4674 3.54125 18.9607C4.40792 19.4674 5.34792 19.7207 6.36125 19.7207H13.6413C14.6546 19.7207 15.5946 19.4674 16.4613 18.9607C17.3013 18.4674 17.9679 17.8007 18.4613 16.9607C18.9679 16.094 19.2213 15.154 19.2213 14.1407V6.8607C19.2213 5.84737 18.9679 4.90737 18.4613 4.0407C17.9679 3.2007 17.3013 2.53403 16.4613 2.0407C15.5946 1.53403 14.6546 1.2807 13.6413 1.2807H6.36125ZM14.8613 4.6807C15.1279 4.6807 15.3546 4.77404 15.5413 4.9607C15.7279 5.14737 15.8213 5.37404 15.8213 5.6407C15.8213 5.90737 15.7279 6.13737 15.5413 6.3307C15.3546 6.52404 15.1279 6.6207 14.8613 6.6207C14.5946 6.6207 14.3646 6.52404 14.1713 6.3307C13.9779 6.13737 13.8813 5.90737 13.8813 5.6407C13.8813 5.37404 13.9779 5.14737 14.1713 4.9607C14.3646 4.77404 14.5946 4.6807 14.8613 4.6807ZM10.0013 5.6407C10.8813 5.6407 11.6946 5.85737 12.4413 6.2907C13.1879 6.72404 13.7779 7.31404 14.2113 8.0607C14.6446 8.80737 14.8613 9.6207 14.8613 10.5007C14.8613 11.3807 14.6446 12.1907 14.2113 12.9307C13.7779 13.6707 13.1879 14.2574 12.4413 14.6907C11.6946 15.124 10.8813 15.3407 10.0013 15.3407C9.12125 15.3407 8.31125 15.124 7.57125 14.6907C6.83125 14.2574 6.24458 13.6707 5.81125 12.9307C5.37792 12.1907 5.16125 11.3807 5.16125 10.5007C5.16125 9.6207 5.37792 8.80737 5.81125 8.0607C6.24458 7.31404 6.83125 6.72404 7.57125 6.2907C8.31125 5.85737 9.12125 5.6407 10.0013 5.6407ZM10.0013 7.1007C9.58792 7.1007 9.15458 7.18737 8.70125 7.3607C8.26125 7.5607 7.89125 7.8107 7.59125 8.1107C7.29125 8.4107 7.04792 8.77404 6.86125 9.2007C6.68792 9.65404 6.60125 10.0874 6.60125 10.5007C6.60125 10.914 6.68792 11.3474 6.86125 11.8007C7.06125 12.2407 7.30792 12.6074 7.60125 12.9007C7.89458 13.194 8.26125 13.4407 8.70125 13.6407C9.15458 13.814 9.58792 13.9007 10.0013 13.9007C10.4146 13.9007 10.8479 13.814 11.3013 13.6407C11.7279 13.454 12.0913 13.2107 12.3913 12.9107C12.6913 12.6107 12.9413 12.2407 13.1413 11.8007C13.3146 11.3474 13.4013 10.914 13.4013 10.5007C13.4013 10.0874 13.3146 9.65404 13.1413 9.2007C12.9679 8.77404 12.7246 8.40404 12.4113 8.0907C12.0979 7.77737 11.7279 7.53404 11.3013 7.3607C10.8479 7.18737 10.4146 7.1007 10.0013 7.1007Z" fill="#171717"/>
</svg>
