<svg width="24" height="25" viewBox="0 0 24 25" fill="none" xmlns="http://www.w3.org/2000/svg">
<g clip-path="url(#clip0_2698_33233)">
<path d="M9.38372 1.7603C10.6312 1.7283 11.8107 1.9403 12.9222 2.3963C14.0337 2.8523 15.0213 3.5283 15.8849 4.4243C16.6846 5.3683 17.2883 6.4163 17.6961 7.5683C18.1039 8.7203 18.2839 9.9043 18.2359 11.1203C18.2359 12.7363 17.868 14.2803 17.1324 15.7523C16.4607 17.0643 15.629 18.2163 14.6374 19.2083C13.294 20.6003 11.7747 21.7683 10.0794 22.7123C9.85552 22.8403 9.61962 22.9043 9.37173 22.9043C9.12384 22.9043 8.88794 22.8403 8.66404 22.7123C6.96877 21.7523 5.45743 20.5843 4.13 19.2083C3.13843 18.2163 2.30679 17.0643 1.63509 15.7523C0.915399 14.3443 0.539562 12.8003 0.507576 11.1203C0.459596 9.9043 0.639518 8.7203 1.04734 7.5683C1.45516 6.4163 2.0589 5.3683 2.85856 4.4243C3.72218 3.5283 4.71775 2.8523 5.84526 2.3963C6.97277 1.9403 8.15226 1.7283 9.38372 1.7603ZM9.38372 20.9123C10.2473 20.4163 11.079 19.8323 11.8786 19.1603C13.1421 18.1203 14.1417 17.0163 14.8773 15.8483C15.8369 14.3123 16.3167 12.7363 16.3167 11.1203C16.3647 10.1443 16.2288 9.1883 15.9089 8.2523C15.589 7.3163 15.1092 6.4723 14.4695 5.7203C13.8138 5.0483 13.0381 4.5283 12.1425 4.1603C11.2949 3.8083 10.3753 3.6483 9.38372 3.6803C8.37616 3.6483 7.45656 3.8083 6.62492 4.1603C5.7453 4.5123 4.96164 5.0323 4.27394 5.7203C3.63422 6.4723 3.15843 7.3123 2.84656 8.2403C2.5347 9.1683 2.39476 10.1283 2.42674 11.1203C2.42674 12.7363 2.91453 14.3123 3.89011 15.8483C4.62579 17.0163 5.61736 18.1203 6.86482 19.1603C7.68046 19.8323 8.5201 20.4163 9.38372 20.9123ZM9.38372 5.7203C9.94348 5.7203 10.4912 5.8163 11.027 6.0083C11.5628 6.2003 12.0546 6.4803 12.5024 6.8483C13.398 7.5843 13.9657 8.5283 14.2056 9.6803C14.3176 10.2403 14.3296 10.8003 14.2416 11.3603C14.1537 11.9203 13.9737 12.4523 13.7018 12.9563C13.43 13.4603 13.0861 13.9043 12.6703 14.2883C12.2545 14.6723 11.7827 14.9683 11.2549 15.1763C10.7271 15.3843 10.1834 15.5043 9.62362 15.5363C9.06386 15.5683 8.5121 15.5043 7.96834 15.3443C7.42457 15.1843 6.92479 14.9323 6.46899 14.5883C6.01319 14.2443 5.62535 13.8363 5.30549 13.3643C4.98563 12.8923 4.75773 12.3843 4.62179 11.8403C4.48585 11.2963 4.44587 10.7403 4.50184 10.1723C4.55782 9.6043 4.70575 9.0643 4.94565 8.5523C5.18555 8.0403 5.50541 7.5763 5.90523 7.1603C6.35304 6.7123 6.87281 6.3603 7.46456 6.1043C8.0563 5.8483 8.69602 5.7203 9.38372 5.7203ZM9.38372 13.6163C10.1354 13.6163 10.7671 13.3923 11.2789 12.9443C11.8547 12.4803 12.2065 11.9043 12.3344 11.2163C12.4624 10.5283 12.3544 9.8683 12.0106 9.2363C11.6667 8.6043 11.1749 8.1523 10.5352 7.8803C9.86351 7.6083 9.19181 7.5683 8.5201 7.7603C7.8164 7.9843 7.26864 8.3883 6.87681 8.9723C6.48498 9.5563 6.32905 10.2123 6.40901 10.9403C6.48898 11.6683 6.77685 12.2723 7.27264 12.7523C7.52853 13.0243 7.84439 13.2363 8.22023 13.3883C8.59607 13.5403 8.9839 13.6163 9.38372 13.6163Z" fill="#FBBF24"/>
</g>
<defs>
<clipPath id="clip0_2698_33233">
<rect width="23.04" height="24" fill="white" transform="matrix(1 0 0 -1 0.5 24.4648)"/>
</clipPath>
</defs>
</svg>
