<svg width="20" height="21" viewBox="0 0 20 21" fill="none" xmlns="http://www.w3.org/2000/svg">
<path d="M13.36 2.7207H14.3L14.64 2.7807L14.78 2.8207C15.0067 2.87404 15.1667 2.9207 15.26 2.9607C15.46 3.0407 15.6467 3.12404 15.82 3.2107C15.9933 3.29737 16.1467 3.39404 16.28 3.5007C16.3733 3.56737 16.5 3.66737 16.66 3.8007C16.7667 3.90737 16.94 3.9407 17.18 3.9007L17.94 3.6807L18.12 3.6207C18.4 3.51404 18.6067 3.42737 18.74 3.3607C19.0067 3.2407 19.1667 3.1607 19.22 3.1207L19.32 3.0807V3.0607H19.34L19.36 3.0407H19.38L19.42 3.0007H19.44V3.0607L19.42 3.0807V3.1207H19.4V3.1407L19.38 3.1807C19.38 3.20737 19.3767 3.2307 19.37 3.2507C19.3633 3.2707 19.31 3.3807 19.21 3.5807C19.11 3.7807 18.9733 4.0007 18.8 4.2407C18.6933 4.37404 18.5467 4.53404 18.36 4.7207C18.2667 4.78737 18.1833 4.85737 18.11 4.9307C18.0367 5.00404 17.98 5.04737 17.94 5.0607L17.84 5.1407H17.82V5.1607H17.8L17.78 5.1807H17.76V5.2007H17.74V5.2207H17.72H17.82L18.32 5.1007C18.6667 5.03404 18.9867 4.95404 19.28 4.8607L19.78 4.7007L19.86 4.6607H19.88L19.9 4.6407H19.92L19.96 4.6207H20V4.6607H19.98V4.6807H19.96V4.7007H19.94V4.7207H19.92V4.7407C19.92 4.75404 19.84 4.8607 19.68 5.0607L19.56 5.2207C19.4933 5.31404 19.4533 5.3607 19.44 5.3607C19.4267 5.3607 19.42 5.36737 19.42 5.3807L19.4 5.4007C19.3733 5.4407 19.24 5.57404 19 5.8007C18.84 5.97404 18.6133 6.1807 18.32 6.4207C18.0933 6.60737 17.98 6.82737 17.98 7.0807C17.98 7.22737 17.9667 7.48737 17.94 7.8607V7.9807C17.9267 8.16737 17.8867 8.46737 17.82 8.8807L17.8 9.0607C17.7333 9.4607 17.6333 9.8907 17.5 10.3507C17.3667 10.8107 17.1933 11.2874 16.98 11.7807C16.82 12.194 16.6133 12.6074 16.36 13.0207C16.1733 13.3674 15.98 13.6807 15.78 13.9607L15.22 14.6807C15.0467 14.894 14.8133 15.1474 14.52 15.4407L14.04 15.9007L13.7 16.1807C13.58 16.274 13.4 16.414 13.16 16.6007L12.84 16.8207C12.6267 16.9674 12.4733 17.0674 12.38 17.1207L11.66 17.5007C11.3133 17.674 11.0067 17.8074 10.74 17.9007C10.58 17.9674 10.32 18.0607 9.96 18.1807L9.72 18.2607C9.34667 18.3674 9 18.4474 8.68 18.5007C8.25333 18.5807 7.87333 18.634 7.54 18.6607L6.9 18.7207H5.72L5.56 18.7007C5.44 18.7007 5.36 18.694 5.32 18.6807L4.56 18.6007C4.14667 18.534 3.80667 18.474 3.54 18.4207C3.40667 18.394 3.13333 18.3074 2.72 18.1607L2.44 18.0807C1.85333 17.8674 1.44 17.7007 1.2 17.5807C0.826667 17.394 0.606667 17.2874 0.54 17.2607L0.42 17.1807C0.353333 17.1407 0.3 17.1074 0.26 17.0807L0.1 16.9807H0.08L0.06 16.9607H0.04V16.9407H0.02V16.9207H0V16.9007H0.12C0.146667 16.914 0.22 16.9207 0.34 16.9207L0.56 16.9407H1.32C1.69333 16.914 1.97333 16.8874 2.16 16.8607C2.4 16.8207 2.73333 16.7474 3.16 16.6407C3.56 16.534 3.91333 16.414 4.22 16.2807L4.9 15.9807C5.07333 15.8874 5.28 15.7607 5.52 15.6007L5.94 15.3207V15.3007H5.96L5.98 15.2807H6V15.2607L6.02 15.2407L5.88 15.2207C5.76 15.2207 5.66667 15.214 5.6 15.2007C5.48 15.2007 5.34 15.174 5.18 15.1207C5.07333 15.094 4.9 15.0407 4.66 14.9607L4.56 14.9207C4.41333 14.854 4.19333 14.7407 3.9 14.5807L3.76 14.4807C3.6 14.374 3.49333 14.294 3.44 14.2407L3.08 13.8807C3.01333 13.814 2.91333 13.694 2.78 13.5207L2.7 13.4007C2.60667 13.254 2.50667 13.0607 2.4 12.8207L2.24 12.5007V12.4807L2.22 12.4607V12.4207H2.28L2.48 12.4607C2.56 12.474 2.76667 12.4807 3.1 12.4807L3.4 12.4607C3.54667 12.4607 3.64 12.454 3.68 12.4407L3.92 12.4007L3.96 12.3807H4V12.3607H4.02L3.98 12.3407H3.96L3.92 12.3207H3.84C3.82667 12.3074 3.80667 12.3007 3.78 12.3007L3.72 12.2807C3.62667 12.2407 3.46 12.174 3.22 12.0807C2.94 11.9474 2.73333 11.8407 2.6 11.7607C2.49333 11.6807 2.34667 11.5607 2.16 11.4007C2.06667 11.3207 1.92 11.1674 1.72 10.9407L1.68 10.9007C1.48 10.6474 1.33333 10.414 1.24 10.2007C1.10667 9.94737 1.00667 9.69404 0.94 9.4407C0.86 9.1207 0.813333 8.87404 0.8 8.7007L0.78 8.3407H0.82L0.84 8.3607H0.86L0.88 8.3807L1.16 8.5007C1.41333 8.60737 1.64667 8.6807 1.86 8.7207L2.36 8.8207H2.6H2.58V8.8007H2.56V8.7807H2.54L2.52 8.7607H2.5L2.32 8.6207C2.25333 8.56737 2.14667 8.46737 2 8.3207L1.68 7.9607C1.62667 7.89404 1.56 7.8007 1.48 7.6807L1.38 7.5407C1.31333 7.39404 1.22667 7.2007 1.12 6.9607C1.01333 6.66737 0.946667 6.4407 0.92 6.2807C0.866667 6.0807 0.84 5.85404 0.84 5.6007C0.826667 5.49404 0.826667 5.35404 0.84 5.1807V5.0207C0.866667 4.8607 0.906667 4.6807 0.96 4.4807L0.98 4.4207C1.06 4.16737 1.13333 3.97404 1.2 3.8407L1.34 3.5007L1.36 3.4807V3.4407H1.4V3.4607H1.42V3.4807L1.44 3.5007V3.5207L1.68 3.7807C1.78667 3.9007 1.98 4.1007 2.26 4.3807C2.46 4.5807 2.58667 4.69404 2.64 4.7207C2.65333 4.7207 2.66667 4.73404 2.68 4.7607L2.72 4.8007C2.76 4.8407 2.88 4.9407 3.08 5.1007C3.18667 5.19404 3.39333 5.34737 3.7 5.5607L3.88 5.6807C4.25333 5.9207 4.62 6.1407 4.98 6.3407C5.54 6.60737 5.97333 6.8007 6.28 6.9207L6.38 6.9607C6.86 7.1207 7.15333 7.21404 7.26 7.2407C7.48667 7.3207 7.80667 7.39404 8.22 7.4607C8.40667 7.5007 8.64667 7.5407 8.94 7.5807L9.24 7.6207L9.7 7.6607H9.82V7.6007L9.78 7.3807C9.75333 7.19404 9.74 6.98737 9.74 6.7607C9.74 6.46737 9.76333 6.2207 9.81 6.0207C9.85667 5.8207 9.92 5.6007 10 5.3607C10.08 5.1207 10.16 4.92737 10.24 4.7807C10.2933 4.68737 10.4 4.53737 10.56 4.3307C10.72 4.12404 10.8933 3.93404 11.08 3.7607C11.3467 3.54737 11.5867 3.3807 11.8 3.2607C12.04 3.12737 12.2867 3.01404 12.54 2.9207C12.7933 2.82737 12.9867 2.77404 13.12 2.7607L13.36 2.7207Z" fill="#171717"/>
</svg>
